<?xml version="1.0" standalone="no"?><!DOCTYPE svg PUBLIC "-//W3C//DTD SVG 1.1//EN" "http://www.w3.org/Graphics/SVG/1.1/DTD/svg11.dtd"><svg t="1750147149501" class="icon" viewBox="0 0 1024 1024" version="1.1" xmlns="http://www.w3.org/2000/svg" p-id="1619" width="48" height="48" xmlns:xlink="http://www.w3.org/1999/xlink"><path d="M896 234.666667V298.666667c0 11.946667-9.386667 21.333333-21.333333 21.333333S853.333333 310.613333 853.333333 298.666667V213.333333h-59.733333c-37.546667 0-68.266667-30.72-68.266667-68.266666V85.333333H170.666667c-23.466667 0-42.666667 19.2-42.666667 42.666667v768c0 23.466667 19.2 42.666667 42.666667 42.666667h533.333333c11.946667 0 21.333333 9.386667 21.333333 21.333333s-9.386667 21.333333-21.333333 21.333333H170.666667c-46.933333 0-85.333333-38.4-85.333334-85.333333V128c0-46.933333 38.4-85.333333 85.333334-85.333333h582.826666L896 184.32V234.666667z" fill="#1296db" p-id="1620"></path><path d="M661.333333 341.333333h-384c-11.946667 0-21.333333-9.386667-21.333333-21.333333s9.386667-21.333333 21.333333-21.333333h384c11.946667 0 21.333333 9.386667 21.333334 21.333333s-9.386667 21.333333-21.333334 21.333333z m-384 85.333334h341.333334c11.946667 0 21.333333 9.386667 21.333333 21.333333s-9.386667 21.333333-21.333333 21.333333h-341.333334c-11.946667 0-21.333333-9.386667-21.333333-21.333333s9.386667-21.333333 21.333333-21.333333z m0 128h170.666667c11.946667 0 21.333333 9.386667 21.333333 21.333333s-9.386667 21.333333-21.333333 21.333333h-170.666667c-11.946667 0-21.333333-9.386667-21.333333-21.333333s9.386667-21.333333 21.333333-21.333333z" fill="#1296db" p-id="1621"></path><path d="M960 810.666667c11.946667 0 21.333333 9.386667 21.333333 21.333333s-9.386667 21.333333-21.333333 21.333333H853.333333v85.333334h106.666667c11.946667 0 21.333333 9.386667 21.333333 21.333333s-9.386667 21.333333-21.333333 21.333333H853.333333v21.333334c0 11.946667-9.386667 21.333333-21.333333 21.333333s-21.333333-9.386667-21.333333-21.333333v-322.133334c-72.106667-10.24-128-72.106667-128-147.2 0-82.346667 66.986667-149.333333 149.333333-149.333333s149.333333 66.986667 149.333333 149.333333c0 75.093333-55.893333 136.96-128 147.2V810.666667h106.666667z m-26.88-277.333334a101.12 101.12 0 0 0-101.546667-101.12c-55.893333 0-101.546667 45.226667-101.546666 101.12s45.226667 101.546667 101.546666 101.546667a101.802667 101.802667 0 0 0 101.546667-101.546667z" fill="#1296db" p-id="1622"></path></svg>